<?xml version="1.0" encoding="UTF-8" standalone="no"?>
<!-- Generator: Adobe Illustrator 24.1.0, SVG Export Plug-In . SVG Version: 6.00 Build 0)  -->

<svg
   version="1.1"
   id="Layer_1"
   x="0px"
   y="0px"
   viewBox="0 0 79.397942 29.232372"
   xml:space="preserve"
   sodipodi:docname="robert_koch_insitute_helix.svg"
   width="79.397942"
   height="29.232372"
   inkscape:version="1.2.2 (732a01da63, 2022-12-09)"
   xmlns:inkscape="http://www.inkscape.org/namespaces/inkscape"
   xmlns:sodipodi="http://sodipodi.sourceforge.net/DTD/sodipodi-0.dtd"
   xmlns="http://www.w3.org/2000/svg"
   xmlns:svg="http://www.w3.org/2000/svg"><defs
   id="defs71" /><sodipodi:namedview
   id="namedview69"
   pagecolor="#ffffff"
   bordercolor="#666666"
   borderopacity="1.0"
   inkscape:showpageshadow="2"
   inkscape:pageopacity="0.0"
   inkscape:pagecheckerboard="0"
   inkscape:deskcolor="#d1d1d1"
   showgrid="false"
   inkscape:zoom="2.4583333"
   inkscape:cx="-10.576271"
   inkscape:cy="7.1186441"
   inkscape:current-layer="Layer_1" />
<style
   type="text/css"
   id="style2">
	.st0{fill:#005CB9;}
	.st1{fill:url(#SVGID_1_);}
	.st2{fill:url(#SVGID_2_);}
	.st3{fill:url(#SVGID_3_);}
	.st4{fill:#D8E3F4;}
	.st5{fill:#0062BB;}
	.st6{fill:url(#SVGID_4_);}
	.st7{fill:url(#SVGID_5_);}
	.st8{fill:url(#SVGID_6_);}
	.st9{fill:none;}
</style>

<linearGradient
   id="SVGID_1_"
   gradientUnits="userSpaceOnUse"
   x1="200.63091"
   y1="39.180801"
   x2="177.6748"
   y2="58.443298">
	<stop
   offset="1.779778e-02"
   style="stop-color:#FFFFFF"
   id="stop6" />
	<stop
   offset="0.1915"
   style="stop-color:#E8EEF8"
   id="stop8" />
	<stop
   offset="0.3409"
   style="stop-color:#D8E3F4"
   id="stop10" />
</linearGradient>

<linearGradient
   id="SVGID_2_"
   gradientUnits="userSpaceOnUse"
   x1="192.42101"
   y1="71.865997"
   x2="182.8905"
   y2="55.358601">
	<stop
   offset="1.779778e-02"
   style="stop-color:#FFFFFF"
   id="stop15" />
	<stop
   offset="0.2386"
   style="stop-color:#E8EEF8"
   id="stop17" />
	<stop
   offset="0.4284"
   style="stop-color:#D8E3F4"
   id="stop19" />
</linearGradient>

<linearGradient
   id="SVGID_3_"
   gradientUnits="userSpaceOnUse"
   x1="124.6769"
   y1="47.770302"
   x2="133.0737"
   y2="57.777199">
	<stop
   offset="0"
   style="stop-color:#FFFFFF"
   id="stop24" />
	<stop
   offset="0.2465"
   style="stop-color:#E4ECF7"
   id="stop26" />
	<stop
   offset="0.4037"
   style="stop-color:#D8E3F4"
   id="stop28" />
</linearGradient>



<linearGradient
   id="SVGID_4_"
   gradientUnits="userSpaceOnUse"
   x1="155.7798"
   y1="48.4151"
   x2="154.8504"
   y2="47.1586">
	<stop
   offset="0.276"
   style="stop-color:#FFFFFF"
   id="stop37" />
	<stop
   offset="0.904"
   style="stop-color:#D2DFF2"
   id="stop39" />
</linearGradient>

<linearGradient
   id="SVGID_5_"
   gradientUnits="userSpaceOnUse"
   x1="149.2536"
   y1="62.497101"
   x2="146.6967"
   y2="53.5802">
	<stop
   offset="0"
   style="stop-color:#FFFFFF"
   id="stop44" />
	<stop
   offset="0.5699"
   style="stop-color:#DFE9F6"
   id="stop46" />
	<stop
   offset="0.904"
   style="stop-color:#D2DFF2"
   id="stop48" />
</linearGradient>

<linearGradient
   id="SVGID_6_"
   gradientUnits="userSpaceOnUse"
   x1="164.8885"
   y1="43.236401"
   x2="153.8916"
   y2="49.5854">
	<stop
   offset="0.1064"
   style="stop-color:#FFFFFF"
   id="stop53" />
	<stop
   offset="0.904"
   style="stop-color:#D2DFF2"
   id="stop55" />
</linearGradient>

<g
   id="g188"
   transform="translate(-124.20206,-41.186544)"><path
     class="st1"
     d="m 179.6,52.3 1.5,2 c 0,0 14.6,-13.6 22.5,-13.1 0,0 -16.4,10.5 -20.9,15.7 l -2.4,1.7 -0.8,0.6 v -6.9 z"
     id="path13"
     style="fill:url(#SVGID_1_)" /><path
     class="st2"
     d="m 180.4,58.6 c 0,0 10,13.7 14.8,11.6 l 0.5,-0.3 c 0,0 -6.7,-3.7 -13,-13 l -1,-0.9 z"
     id="path22"
     style="fill:url(#SVGID_2_)" /><path
     class="st3"
     d="m 130.4,58.1 c 0,0 0.6,-0.6 0.2,-1 l -4.9,-5.3 c 0,0 -2.3,-3 -1.2,-3.8 0,0 0.8,-0.7 3.2,2.3 2.4,3 5.1,5.5 5.1,5.5 0,0 0.5,0.7 1.7,0 L 134,57 Z"
     id="path31"
     style="fill:url(#SVGID_3_)" /><path
     class="st4"
     d="m 141.9,53.5 v -2.6 l -7.9,5.1 -3.6,2.1 -2,1.2 c 0,0 -1.2,0.6 -0.8,1.5 0,0 0.5,0.8 2,0.2 l 2.2,-1.3 v 0 l 0.8,-0.3 0.1,0.2 0.3,0.2 c 3.6,3.4 4.5,3.5 4.5,3.5 1.4,0.8 2.5,0 2.5,0 0.5,-0.7 -0.7,-1.6 -0.7,-1.6 l -1.6,-1.1 -2.8,-2.2 c -0.3,-0.3 0,-0.6 0,-0.6 v 0 l 0.6,-0.4 z"
     id="path33" /><path
     class="st5"
     d="m 178.9,42.7 h -0.2 V 47 l -4.2,3.1 c -5.7,-5.8 -10.9,-5.9 -10.9,-5.9 -9.6,-0.8 -19.7,5.4 -21,6.2 v -7.6 0 h -0.8 v 24.6 0.1 h 0.8 v -1.1 c 2.4,1.4 5.2,1.6 6.8,1.7 1.7,0.1 2,0.1 3.7,-0.1 9.9,-1.4 20.8,-12.9 20.8,-12.9 l 4.9,7.2 v 5.1 h 0.8 v 0 -24.7 z m -18.8,19.1 c -8.2,6.3 -11.2,5 -11.2,5 -3.7,-0.5 -5.8,-4 -6.2,-4.8 v -6.3 c 8.3,-7.8 16.8,-10.3 16.8,-10.3 6.8,-1.8 12.7,6.9 12.7,6.9 z m 18.7,-5.5 -2.4,-3.6 2.4,-2 z"
     id="path35" /><path
     class="st6"
     d="m 150.9,49.5 c 4.2,-2.5 7.4,-3.7 8.3,-4 -0.8,0.2 -4.1,1.4 -8.3,4 z"
     id="path42"
     style="fill:url(#SVGID_4_)" /><path
     class="st7"
     d="m 150.2,58.9 c -1.5,-0.4 -2.7,-3.3 1.7,-6.3 l -2,-2.4 c 0.3,-0.2 0.6,-0.4 1,-0.6 -2.5,1.5 -5.3,3.6 -8.2,6.2 v 2.9 c 0,0 2.9,3 7.5,1.7 0,-0.1 2.2,-0.9 0,-1.5 z"
     id="path51"
     style="fill:url(#SVGID_5_)" /><path
     class="st8"
     d="m 159.5,45.4 c 0,0 -4.2,1.3 -9.6,4.8 l 2,2.4 c 4.4,-3.6 11.2,-7.3 11.3,-7.3 -1.2,-0.2 -2.5,-0.3 -3.7,0.1 z"
     id="path58"
     style="fill:url(#SVGID_6_)" /><g
     id="g64">
	<path
   class="st4"
   d="m 160.4,44.2 v 0 c 0,0 -0.1,0 -0.2,0 0,0 0.1,0 0.2,0 z"
   id="path60" />
	<path
   class="st4"
   d="m 142.7,49.4 v 0.9 c 1.1,-0.7 8.9,-5.4 17.2,-6.2 -9.9,0.9 -16.2,4.6 -17.2,5.3 z"
   id="path62" />
</g></g>
<rect
   class="st9"
   width="227"
   height="96"
   id="rect66"
   x="-124.20206"
   y="-41.186543" />
</svg>
