<?xml version="1.0" encoding="utf-8"?>
<!-- Generator: Adobe Illustrator 24.1.0, SVG Export Plug-In . SVG Version: 6.00 Build 0)  -->
<svg version="1.1" id="Layer_1" xmlns="http://www.w3.org/2000/svg" xmlns:xlink="http://www.w3.org/1999/xlink" x="0px" y="0px"
	 viewBox="0 0 227 96" style="enable-background:new 0 0 227 96;" xml:space="preserve">
<style type="text/css">
	.st0{fill:#005CB9;}
	.st1{fill:url(#SVGID_1_);}
	.st2{fill:url(#SVGID_2_);}
	.st3{fill:url(#SVGID_3_);}
	.st4{fill:#D8E3F4;}
	.st5{fill:#0062BB;}
	.st6{fill:url(#SVGID_4_);}
	.st7{fill:url(#SVGID_5_);}
	.st8{fill:url(#SVGID_6_);}
	.st9{fill:none;}
</style>
<path class="st0" d="M28.3,33.1h-0.5c-0.4,0-0.6-0.2-0.9-0.7l-2-3.1c1.3-0.2,2.1-1.1,2.1-2.4c0-0.4-0.1-0.9-0.3-1.2
	c-0.4-0.9-1.2-1.2-2.5-1.2h-3.9v0.5h1v8.2h-1v0.5h3.3v-0.5h-1v-3.6h1.1l2.1,3.3c0.5,0.7,0.6,0.8,1.4,0.8h1.2V33.1z M22.5,25.1h1.3
	c1.2,0,1.8,0.7,1.8,1.9c0,1.1-0.7,1.9-1.8,1.9h-1.3V25.1z M35.3,33.8c2.4,0,4.5-2.2,4.5-4.8c0-2.6-2-4.8-4.5-4.8
	c-2.5,0-4.5,2.2-4.5,4.8C30.8,31.6,32.8,33.8,35.3,33.8z M35.3,25c1.8,0,3.1,1.7,3.1,4c0,2.3-1.3,4-3.1,4c-1.8,0-3.1-1.7-3.1-4
	C32.2,26.7,33.5,25,35.3,25z M47.5,33.6c1.4,0,2.5-1,2.5-2.4c0-0.9-0.5-1.8-1.4-2.2c-0.3-0.2-0.5-0.2-1.1-0.3c1.1-0.1,2-1,2-2.1
	c0-1.3-1-2.3-2.3-2.3H43v0.5h1v8.2h-1v0.5H47.5z M45.3,29.2h1.6c1.1,0,1.9,0.8,1.9,2c0,1.1-0.7,1.8-1.9,1.8h-1.6V29.2z M45.3,25.1
	h1.5c0.8,0,1.4,0.7,1.4,1.7c0,1-0.6,1.8-1.5,1.8h-1.4V25.1z M59.9,31.8h-0.6V33h-3.4v-3.7h2.6v1.1l0.6,0v-2.7l-0.6,0v1h-2.6v-3.6
	h3.3v1.2h0.6V24h-0.6v0.4h-5.6v0.5h1v8.2h-1v0.5h6.3V31.8z M71.4,33.1h-0.5c-0.3,0-0.6-0.2-0.9-0.7l-2-3.1c1.3-0.2,2.1-1.1,2.1-2.4
	c0-0.4-0.1-0.9-0.3-1.2c-0.4-0.9-1.2-1.2-2.5-1.2h-3.9v0.5h1v8.2h-1v0.5h3.3v-0.5h-1v-3.6h1.1l2.1,3.3c0.5,0.7,0.6,0.8,1.4,0.8h1.2
	V33.1z M65.6,25.1h1.3c1.2,0,1.8,0.7,1.8,1.9c0,1.1-0.7,1.9-1.8,1.9h-1.3V25.1z M79.4,33.1H78v-8h2.8v1.1h0.7V24h-0.7v0.4H74V24
	h-0.7v2.2H74v-1.1h2.8v8h-1.4v0.5h4V33.1z M97.5,33.1h-0.7L93,28.6l3.1-3.7H97v-0.5h-2.9v0.5h1l-3.4,4l3.9,4.6h1.9V33.1z M92.6,33.1
	h-1v-8.2h1v-0.5h-3.3v0.5l1,0v8.1h-1v0.5h3.3V33.1z M104.4,33.8c2.4,0,4.5-2.2,4.5-4.8c0-2.6-2-4.8-4.5-4.8c-2.5,0-4.5,2.2-4.5,4.8
	C99.9,31.6,101.9,33.8,104.4,33.8z M104.4,25c1.8,0,3.1,1.7,3.1,4c0,2.3-1.3,4-3.1,4c-1.8,0-3.1-1.7-3.1-4
	C101.2,26.7,102.5,25,104.4,25z M119.8,31.4h-0.7v1c-0.9,0.5-1.5,0.7-2.2,0.7c-2.1,0-3.7-1.8-3.7-4.1c0-2.4,1.4-4,3.5-4
	c0.9,0,1.5,0.2,2.4,0.9v0.7h0.7v-2.4h-0.7v0.6c-0.8-0.4-1.5-0.5-2.4-0.5c-2.7,0-4.8,2.1-4.8,4.8c0,2.7,2.1,4.7,5,4.7
	c1,0,1.8-0.2,2.9-0.6V31.4z M132.9,33.1h-1.1v-8.2h1.1v-0.5h-3.3v0.5h1v3.7h-5.2v-3.7h1v-0.5h-3.3v0.5h1v8.2h-1v0.5h3.3v-0.5h-1
	v-3.8h5.2v3.8h-1v0.5h3.3V33.1z M142.2,33.6v-9.2h1.1v9.2H142.2z M155.5,33.7v-9.3h-1.1v7.8c0-0.1,0-0.1,0-0.1
	c-0.1-0.3-0.1-0.3-0.2-0.4c0-0.1-0.1-0.2-0.1-0.2l-4.6-7H148v9.2h1.1v-8c0.1,0.2,0.1,0.2,0.1,0.3c0,0.1,0.1,0.1,0.1,0.2
	c0.1,0.1,0.1,0.3,0.2,0.3l4.6,7.2H155.5z M165.4,25c-0.5-0.3-0.7-0.4-1.1-0.5c-0.5-0.2-1-0.2-1.5-0.2c-1.8,0-3,1-3,2.4
	c0,0.9,0.6,1.7,2,2.4c0.9,0.5,1.4,0.7,1.5,0.8c0.4,0.2,0.6,0.5,0.8,0.8c0.1,0.2,0.1,0.4,0.1,0.7c0,0.9-0.7,1.4-1.7,1.4
	c-0.5,0-0.9-0.1-1.3-0.2c-0.3-0.1-0.5-0.2-1.1-0.6l-0.6,0.9c0.6,0.4,0.8,0.5,1.2,0.7c0.5,0.2,1.1,0.3,1.7,0.3c1.9,0,3-1,3-2.6
	c0-0.7-0.3-1.3-0.7-1.7c-0.3-0.3-0.8-0.6-1.4-0.9c-1.9-1-2.3-1.3-2.3-2c0-0.8,0.7-1.3,1.7-1.3c0.4,0,0.9,0.1,1.3,0.2
	c0.3,0.1,0.5,0.2,1,0.5L165.4,25z M175.2,25.4v-1H168v1h3.1v8.2h1.1v-8.2H175.2z M179.7,33.6v-9.2h-1.2v9.2H179.7z M190.3,25.4v-1
	H183v1h3.1v8.2h1.1v-8.2H190.3z M200.6,30.5v-6h-1.1v5.7c0,1.1-0.1,1.5-0.5,2c-0.5,0.5-1.1,0.8-1.9,0.8c-0.8,0-1.5-0.3-1.9-0.8
	c-0.5-0.5-0.5-0.8-0.5-2v-5.7h-1.1v6c0,1.2,0.3,1.9,1.1,2.6c0.7,0.6,1.6,0.8,2.5,0.8c1,0,1.8-0.3,2.5-0.8
	C200.3,32.4,200.6,31.7,200.6,30.5z M210.9,25.4v-1h-7.3v1h3.1v8.2h1.1v-8.2H210.9"/>
<linearGradient id="SVGID_1_" gradientUnits="userSpaceOnUse" x1="200.6309" y1="39.1808" x2="177.6748" y2="58.4433">
	<stop  offset="1.779778e-02" style="stop-color:#FFFFFF"/>
	<stop  offset="0.1915" style="stop-color:#E8EEF8"/>
	<stop  offset="0.3409" style="stop-color:#D8E3F4"/>
</linearGradient>
<path class="st1" d="M179.6,52.3l1.5,2c0,0,14.6-13.6,22.5-13.1c0,0-16.4,10.5-20.9,15.7l-2.4,1.7l-0.8,0.6V52.3z"/>
<linearGradient id="SVGID_2_" gradientUnits="userSpaceOnUse" x1="192.421" y1="71.866" x2="182.8905" y2="55.3586">
	<stop  offset="1.779778e-02" style="stop-color:#FFFFFF"/>
	<stop  offset="0.2386" style="stop-color:#E8EEF8"/>
	<stop  offset="0.4284" style="stop-color:#D8E3F4"/>
</linearGradient>
<path class="st2" d="M180.4,58.6c0,0,10,13.7,14.8,11.6l0.5-0.3c0,0-6.7-3.7-13-13l-1-0.9L180.4,58.6z"/>
<linearGradient id="SVGID_3_" gradientUnits="userSpaceOnUse" x1="124.6769" y1="47.7703" x2="133.0737" y2="57.7772">
	<stop  offset="0" style="stop-color:#FFFFFF"/>
	<stop  offset="0.2465" style="stop-color:#E4ECF7"/>
	<stop  offset="0.4037" style="stop-color:#D8E3F4"/>
</linearGradient>
<path class="st3" d="M130.4,58.1c0,0,0.6-0.6,0.2-1l-4.9-5.3c0,0-2.3-3-1.2-3.8c0,0,0.8-0.7,3.2,2.3c2.4,3,5.1,5.5,5.1,5.5
	s0.5,0.7,1.7,0L134,57L130.4,58.1z"/>
<path class="st4" d="M141.9,53.5v-2.6l-7.9,5.1l-3.6,2.1l-2,1.2c0,0-1.2,0.6-0.8,1.5c0,0,0.5,0.8,2,0.2l2.2-1.3l0,0l0.8-0.3l0.1,0.2
	l0.3,0.2c3.6,3.4,4.5,3.5,4.5,3.5c1.4,0.8,2.5,0,2.5,0c0.5-0.7-0.7-1.6-0.7-1.6l-1.6-1.1l-2.8-2.2c-0.3-0.3,0-0.6,0-0.6l0,0l0.6-0.4
	L141.9,53.5z"/>
<path class="st5" d="M178.9,42.7h-0.2V47l-4.2,3.1c-5.7-5.8-10.9-5.9-10.9-5.9c-9.6-0.8-19.7,5.4-21,6.2v-7.6h0h-0.8v24.6v0.1h0.8
	v-1.1c2.4,1.4,5.2,1.6,6.8,1.7c1.7,0.1,2,0.1,3.7-0.1c9.9-1.4,20.8-12.9,20.8-12.9l4.9,7.2v5.1h0.8v0V42.7H178.9z M160.1,61.8
	c-8.2,6.3-11.2,5-11.2,5c-3.7-0.5-5.8-4-6.2-4.8v-6.3c8.3-7.8,16.8-10.3,16.8-10.3c6.8-1.8,12.7,6.9,12.7,6.9L160.1,61.8z
	 M178.8,56.3l-2.4-3.6l2.4-2V56.3z"/>
<linearGradient id="SVGID_4_" gradientUnits="userSpaceOnUse" x1="155.7798" y1="48.4151" x2="154.8504" y2="47.1586">
	<stop  offset="0.276" style="stop-color:#FFFFFF"/>
	<stop  offset="0.904" style="stop-color:#D2DFF2"/>
</linearGradient>
<path class="st6" d="M150.9,49.5c4.2-2.5,7.4-3.7,8.3-4C158.4,45.7,155.1,46.9,150.9,49.5z"/>
<linearGradient id="SVGID_5_" gradientUnits="userSpaceOnUse" x1="149.2536" y1="62.4971" x2="146.6967" y2="53.5802">
	<stop  offset="0" style="stop-color:#FFFFFF"/>
	<stop  offset="0.5699" style="stop-color:#DFE9F6"/>
	<stop  offset="0.904" style="stop-color:#D2DFF2"/>
</linearGradient>
<path class="st7" d="M150.2,58.9c-1.5-0.4-2.7-3.3,1.7-6.3l-2-2.4c0.3-0.2,0.6-0.4,1-0.6c-2.5,1.5-5.3,3.6-8.2,6.2v2.9
	c0,0,2.9,3,7.5,1.7C150.2,60.3,152.4,59.5,150.2,58.9z"/>
<linearGradient id="SVGID_6_" gradientUnits="userSpaceOnUse" x1="164.8885" y1="43.2364" x2="153.8916" y2="49.5854">
	<stop  offset="0.1064" style="stop-color:#FFFFFF"/>
	<stop  offset="0.904" style="stop-color:#D2DFF2"/>
</linearGradient>
<path class="st8" d="M159.5,45.4c0,0-4.2,1.3-9.6,4.8l2,2.4c4.4-3.6,11.2-7.3,11.3-7.3C162,45.1,160.7,45,159.5,45.4z"/>
<g>
	<path class="st4" d="M160.4,44.2L160.4,44.2c0,0-0.1,0-0.2,0C160.2,44.2,160.3,44.2,160.4,44.2z"/>
	<path class="st4" d="M142.7,49.4v0.9c1.1-0.7,8.9-5.4,17.2-6.2C150,45,143.7,48.7,142.7,49.4z"/>
</g>
<rect class="st9" width="227" height="96"/>
</svg>
